%TF.GenerationSoftware,KiCad,Pcbnew,6.0.5*%
%TF.CreationDate,2022-08-02T09:40:57-05:00*%
%TF.ProjectId,TLE493d-W2B6-board,544c4534-3933-4642-9d57-3242362d626f,rev?*%
%TF.SameCoordinates,Original*%
%TF.FileFunction,Legend,Top*%
%TF.FilePolarity,Positive*%
%FSLAX46Y46*%
G04 Gerber Fmt 4.6, Leading zero omitted, Abs format (unit mm)*
G04 Created by KiCad (PCBNEW 6.0.5) date 2022-08-02 09:40:57*
%MOMM*%
%LPD*%
G01*
G04 APERTURE LIST*
G04 Aperture macros list*
%AMRoundRect*
0 Rectangle with rounded corners*
0 $1 Rounding radius*
0 $2 $3 $4 $5 $6 $7 $8 $9 X,Y pos of 4 corners*
0 Add a 4 corners polygon primitive as box body*
4,1,4,$2,$3,$4,$5,$6,$7,$8,$9,$2,$3,0*
0 Add four circle primitives for the rounded corners*
1,1,$1+$1,$2,$3*
1,1,$1+$1,$4,$5*
1,1,$1+$1,$6,$7*
1,1,$1+$1,$8,$9*
0 Add four rect primitives between the rounded corners*
20,1,$1+$1,$2,$3,$4,$5,0*
20,1,$1+$1,$4,$5,$6,$7,0*
20,1,$1+$1,$6,$7,$8,$9,0*
20,1,$1+$1,$8,$9,$2,$3,0*%
G04 Aperture macros list end*
%ADD10C,0.150000*%
%ADD11C,0.120000*%
%ADD12R,1.700000X1.700000*%
%ADD13O,1.700000X1.700000*%
%ADD14RoundRect,0.150000X-0.512500X-0.150000X0.512500X-0.150000X0.512500X0.150000X-0.512500X0.150000X0*%
%ADD15RoundRect,0.237500X-0.237500X0.250000X-0.237500X-0.250000X0.237500X-0.250000X0.237500X0.250000X0*%
%ADD16RoundRect,0.237500X0.237500X-0.250000X0.237500X0.250000X-0.237500X0.250000X-0.237500X-0.250000X0*%
%ADD17RoundRect,0.237500X0.300000X0.237500X-0.300000X0.237500X-0.300000X-0.237500X0.300000X-0.237500X0*%
G04 APERTURE END LIST*
D10*
%TO.C,J1*%
X118176666Y-83332380D02*
X118176666Y-84046666D01*
X118129047Y-84189523D01*
X118033809Y-84284761D01*
X117890952Y-84332380D01*
X117795714Y-84332380D01*
X119176666Y-84332380D02*
X118605238Y-84332380D01*
X118890952Y-84332380D02*
X118890952Y-83332380D01*
X118795714Y-83475238D01*
X118700476Y-83570476D01*
X118605238Y-83618095D01*
%TO.C,U3*%
X131238095Y-60812380D02*
X131238095Y-61621904D01*
X131285714Y-61717142D01*
X131333333Y-61764761D01*
X131428571Y-61812380D01*
X131619047Y-61812380D01*
X131714285Y-61764761D01*
X131761904Y-61717142D01*
X131809523Y-61621904D01*
X131809523Y-60812380D01*
X132190476Y-60812380D02*
X132809523Y-60812380D01*
X132476190Y-61193333D01*
X132619047Y-61193333D01*
X132714285Y-61240952D01*
X132761904Y-61288571D01*
X132809523Y-61383809D01*
X132809523Y-61621904D01*
X132761904Y-61717142D01*
X132714285Y-61764761D01*
X132619047Y-61812380D01*
X132333333Y-61812380D01*
X132238095Y-61764761D01*
X132190476Y-61717142D01*
%TO.C,R1*%
X122882380Y-103166666D02*
X122406190Y-103500000D01*
X122882380Y-103738095D02*
X121882380Y-103738095D01*
X121882380Y-103357142D01*
X121930000Y-103261904D01*
X121977619Y-103214285D01*
X122072857Y-103166666D01*
X122215714Y-103166666D01*
X122310952Y-103214285D01*
X122358571Y-103261904D01*
X122406190Y-103357142D01*
X122406190Y-103738095D01*
X122882380Y-102214285D02*
X122882380Y-102785714D01*
X122882380Y-102500000D02*
X121882380Y-102500000D01*
X122025238Y-102595238D01*
X122120476Y-102690476D01*
X122168095Y-102785714D01*
%TO.C,R2*%
X123022380Y-99079166D02*
X122546190Y-99412500D01*
X123022380Y-99650595D02*
X122022380Y-99650595D01*
X122022380Y-99269642D01*
X122070000Y-99174404D01*
X122117619Y-99126785D01*
X122212857Y-99079166D01*
X122355714Y-99079166D01*
X122450952Y-99126785D01*
X122498571Y-99174404D01*
X122546190Y-99269642D01*
X122546190Y-99650595D01*
X122117619Y-98698214D02*
X122070000Y-98650595D01*
X122022380Y-98555357D01*
X122022380Y-98317261D01*
X122070000Y-98222023D01*
X122117619Y-98174404D01*
X122212857Y-98126785D01*
X122308095Y-98126785D01*
X122450952Y-98174404D01*
X123022380Y-98745833D01*
X123022380Y-98126785D01*
%TO.C,U1*%
X143238095Y-87052380D02*
X143238095Y-87861904D01*
X143285714Y-87957142D01*
X143333333Y-88004761D01*
X143428571Y-88052380D01*
X143619047Y-88052380D01*
X143714285Y-88004761D01*
X143761904Y-87957142D01*
X143809523Y-87861904D01*
X143809523Y-87052380D01*
X144809523Y-88052380D02*
X144238095Y-88052380D01*
X144523809Y-88052380D02*
X144523809Y-87052380D01*
X144428571Y-87195238D01*
X144333333Y-87290476D01*
X144238095Y-87338095D01*
%TO.C,U2*%
X131238095Y-99052380D02*
X131238095Y-99861904D01*
X131285714Y-99957142D01*
X131333333Y-100004761D01*
X131428571Y-100052380D01*
X131619047Y-100052380D01*
X131714285Y-100004761D01*
X131761904Y-99957142D01*
X131809523Y-99861904D01*
X131809523Y-99052380D01*
X132238095Y-99147619D02*
X132285714Y-99100000D01*
X132380952Y-99052380D01*
X132619047Y-99052380D01*
X132714285Y-99100000D01*
X132761904Y-99147619D01*
X132809523Y-99242857D01*
X132809523Y-99338095D01*
X132761904Y-99480952D01*
X132190476Y-100052380D01*
X132809523Y-100052380D01*
%TO.C,C1*%
X114133333Y-105927142D02*
X114085714Y-105974761D01*
X113942857Y-106022380D01*
X113847619Y-106022380D01*
X113704761Y-105974761D01*
X113609523Y-105879523D01*
X113561904Y-105784285D01*
X113514285Y-105593809D01*
X113514285Y-105450952D01*
X113561904Y-105260476D01*
X113609523Y-105165238D01*
X113704761Y-105070000D01*
X113847619Y-105022380D01*
X113942857Y-105022380D01*
X114085714Y-105070000D01*
X114133333Y-105117619D01*
X115085714Y-106022380D02*
X114514285Y-106022380D01*
X114800000Y-106022380D02*
X114800000Y-105022380D01*
X114704761Y-105165238D01*
X114609523Y-105260476D01*
X114514285Y-105308095D01*
D11*
%TO.C,J1*%
X115565000Y-92500000D02*
X118225000Y-92500000D01*
X115167929Y-94150000D02*
X115565000Y-94150000D01*
X115167929Y-90850000D02*
X115565000Y-90850000D01*
X115565000Y-84820000D02*
X115565000Y-95100000D01*
X124225000Y-88310000D02*
X124225000Y-89070000D01*
X124225000Y-85770000D02*
X124225000Y-86530000D01*
X118225000Y-86190000D02*
X124225000Y-86190000D01*
X124225000Y-93390000D02*
X124225000Y-94150000D01*
X118225000Y-88310000D02*
X124225000Y-88310000D01*
X118225000Y-85770000D02*
X124225000Y-85770000D01*
X124225000Y-90850000D02*
X124225000Y-91610000D01*
X112855000Y-86150000D02*
X112855000Y-84880000D01*
X115167929Y-89070000D02*
X115565000Y-89070000D01*
X118225000Y-86070000D02*
X124225000Y-86070000D01*
X124225000Y-86530000D02*
X118225000Y-86530000D01*
X115565000Y-95100000D02*
X118225000Y-95100000D01*
X115167929Y-93390000D02*
X115565000Y-93390000D01*
X124225000Y-91610000D02*
X118225000Y-91610000D01*
X118225000Y-95100000D02*
X118225000Y-84820000D01*
X115167929Y-88310000D02*
X115565000Y-88310000D01*
X124225000Y-89070000D02*
X118225000Y-89070000D01*
X118225000Y-90850000D02*
X124225000Y-90850000D01*
X115235000Y-86530000D02*
X115565000Y-86530000D01*
X112855000Y-84880000D02*
X114125000Y-84880000D01*
X118225000Y-84820000D02*
X115565000Y-84820000D01*
X118225000Y-85950000D02*
X124225000Y-85950000D01*
X124225000Y-94150000D02*
X118225000Y-94150000D01*
X118225000Y-86310000D02*
X124225000Y-86310000D01*
X118225000Y-86430000D02*
X124225000Y-86430000D01*
X115565000Y-87420000D02*
X118225000Y-87420000D01*
X115565000Y-89960000D02*
X118225000Y-89960000D01*
X118225000Y-85830000D02*
X124225000Y-85830000D01*
X118225000Y-93390000D02*
X124225000Y-93390000D01*
X115167929Y-91610000D02*
X115565000Y-91610000D01*
X115235000Y-85770000D02*
X115565000Y-85770000D01*
%TO.C,U3*%
X132000000Y-77440000D02*
X132800000Y-77440000D01*
X132000000Y-77440000D02*
X130200000Y-77440000D01*
X132000000Y-80560000D02*
X131200000Y-80560000D01*
X132000000Y-80560000D02*
X132800000Y-80560000D01*
%TO.C,R1*%
X120477500Y-102745276D02*
X120477500Y-103254724D01*
X121522500Y-102745276D02*
X121522500Y-103254724D01*
%TO.C,R2*%
X123477500Y-99167224D02*
X123477500Y-98657776D01*
X124522500Y-99167224D02*
X124522500Y-98657776D01*
%TO.C,U1*%
X144000000Y-91560000D02*
X144800000Y-91560000D01*
X144000000Y-88440000D02*
X144800000Y-88440000D01*
X144000000Y-88440000D02*
X142200000Y-88440000D01*
X144000000Y-91560000D02*
X143200000Y-91560000D01*
%TO.C,U2*%
X132000000Y-103560000D02*
X132800000Y-103560000D01*
X132000000Y-103560000D02*
X131200000Y-103560000D01*
X132000000Y-100440000D02*
X130200000Y-100440000D01*
X132000000Y-100440000D02*
X132800000Y-100440000D01*
%TO.C,C1*%
X114446267Y-103630000D02*
X114153733Y-103630000D01*
X114446267Y-104650000D02*
X114153733Y-104650000D01*
%TD*%
%LPC*%
D12*
%TO.C,J1*%
X114125000Y-86150000D03*
D13*
X114125000Y-88690000D03*
X114125000Y-91230000D03*
X114125000Y-93770000D03*
%TD*%
D14*
%TO.C,U3*%
X130862500Y-78050000D03*
X130862500Y-79000000D03*
X130862500Y-79950000D03*
X133137500Y-79950000D03*
X133137500Y-79000000D03*
X133137500Y-78050000D03*
%TD*%
D15*
%TO.C,R1*%
X121000000Y-102087500D03*
X121000000Y-103912500D03*
%TD*%
D16*
%TO.C,R2*%
X124000000Y-99825000D03*
X124000000Y-98000000D03*
%TD*%
D14*
%TO.C,U1*%
X142862500Y-89050000D03*
X142862500Y-90000000D03*
X142862500Y-90950000D03*
X145137500Y-90950000D03*
X145137500Y-90000000D03*
X145137500Y-89050000D03*
%TD*%
%TO.C,U2*%
X130862500Y-101050000D03*
X130862500Y-102000000D03*
X130862500Y-102950000D03*
X133137500Y-102950000D03*
X133137500Y-102000000D03*
X133137500Y-101050000D03*
%TD*%
D17*
%TO.C,C1*%
X115162500Y-104140000D03*
X113437500Y-104140000D03*
%TD*%
M02*
