%TF.GenerationSoftware,KiCad,Pcbnew,6.0.5*%
%TF.CreationDate,2022-08-02T09:40:57-05:00*%
%TF.ProjectId,TLE493d-W2B6-board,544c4534-3933-4642-9d57-3242362d626f,rev?*%
%TF.SameCoordinates,Original*%
%TF.FileFunction,Copper,L2,Bot*%
%TF.FilePolarity,Positive*%
%FSLAX46Y46*%
G04 Gerber Fmt 4.6, Leading zero omitted, Abs format (unit mm)*
G04 Created by KiCad (PCBNEW 6.0.5) date 2022-08-02 09:40:57*
%MOMM*%
%LPD*%
G01*
G04 APERTURE LIST*
%TA.AperFunction,ComponentPad*%
%ADD10R,1.700000X1.700000*%
%TD*%
%TA.AperFunction,ComponentPad*%
%ADD11O,1.700000X1.700000*%
%TD*%
%TA.AperFunction,ViaPad*%
%ADD12C,0.800000*%
%TD*%
%TA.AperFunction,Conductor*%
%ADD13C,0.250000*%
%TD*%
G04 APERTURE END LIST*
D10*
%TO.P,J1,1,Pin_1*%
%TO.N,+3V3*%
X114125000Y-86150000D03*
D11*
%TO.P,J1,2,Pin_2*%
%TO.N,SDA*%
X114125000Y-88690000D03*
%TO.P,J1,3,Pin_3*%
%TO.N,SCL*%
X114125000Y-91230000D03*
%TO.P,J1,4,Pin_4*%
%TO.N,GND*%
X114125000Y-93770000D03*
%TD*%
D12*
%TO.N,GND*%
X131318000Y-86360000D03*
X140462000Y-98298000D03*
X138938000Y-99822000D03*
X116586000Y-105410000D03*
X128524000Y-100330000D03*
X133604000Y-86360000D03*
X118872000Y-105410000D03*
X121158000Y-105410000D03*
X131318000Y-91694000D03*
X137160000Y-101346000D03*
X133604000Y-91694000D03*
X129000000Y-86360000D03*
X129012658Y-91694000D03*
%TD*%
D13*
%TO.N,GND*%
X136906000Y-101346000D02*
X137160000Y-101346000D01*
%TD*%
%TA.AperFunction,Conductor*%
%TO.N,GND*%
G36*
X147262121Y-73680002D02*
G01*
X147308614Y-73733658D01*
X147320000Y-73786000D01*
X147320000Y-106554000D01*
X147299998Y-106622121D01*
X147246342Y-106668614D01*
X147194000Y-106680000D01*
X111886000Y-106680000D01*
X111817879Y-106659998D01*
X111771386Y-106606342D01*
X111760000Y-106554000D01*
X111760000Y-94037966D01*
X112793257Y-94037966D01*
X112823565Y-94172446D01*
X112826645Y-94182275D01*
X112906770Y-94379603D01*
X112911413Y-94388794D01*
X113022694Y-94570388D01*
X113028777Y-94578699D01*
X113168213Y-94739667D01*
X113175580Y-94746883D01*
X113339434Y-94882916D01*
X113347881Y-94888831D01*
X113531756Y-94996279D01*
X113541042Y-95000729D01*
X113740001Y-95076703D01*
X113749899Y-95079579D01*
X113853250Y-95100606D01*
X113867299Y-95099410D01*
X113871000Y-95089065D01*
X113871000Y-95088517D01*
X114379000Y-95088517D01*
X114383064Y-95102359D01*
X114396478Y-95104393D01*
X114403184Y-95103534D01*
X114413262Y-95101392D01*
X114617255Y-95040191D01*
X114626842Y-95036433D01*
X114818095Y-94942739D01*
X114826945Y-94937464D01*
X115000328Y-94813792D01*
X115008200Y-94807139D01*
X115159052Y-94656812D01*
X115165730Y-94648965D01*
X115290003Y-94476020D01*
X115295313Y-94467183D01*
X115389670Y-94276267D01*
X115393469Y-94266672D01*
X115455377Y-94062910D01*
X115457555Y-94052837D01*
X115458986Y-94041962D01*
X115456775Y-94027778D01*
X115443617Y-94024000D01*
X114397115Y-94024000D01*
X114381876Y-94028475D01*
X114380671Y-94029865D01*
X114379000Y-94037548D01*
X114379000Y-95088517D01*
X113871000Y-95088517D01*
X113871000Y-94042115D01*
X113866525Y-94026876D01*
X113865135Y-94025671D01*
X113857452Y-94024000D01*
X112808225Y-94024000D01*
X112794694Y-94027973D01*
X112793257Y-94037966D01*
X111760000Y-94037966D01*
X111760000Y-91196695D01*
X112762251Y-91196695D01*
X112762548Y-91201848D01*
X112762548Y-91201851D01*
X112768011Y-91296590D01*
X112775110Y-91419715D01*
X112776247Y-91424761D01*
X112776248Y-91424767D01*
X112796119Y-91512939D01*
X112824222Y-91637639D01*
X112908266Y-91844616D01*
X113024987Y-92035088D01*
X113171250Y-92203938D01*
X113343126Y-92346632D01*
X113416955Y-92389774D01*
X113465679Y-92441412D01*
X113478750Y-92511195D01*
X113452019Y-92576967D01*
X113411562Y-92610327D01*
X113403457Y-92614546D01*
X113394738Y-92620036D01*
X113224433Y-92747905D01*
X113216726Y-92754748D01*
X113069590Y-92908717D01*
X113063104Y-92916727D01*
X112943098Y-93092649D01*
X112938000Y-93101623D01*
X112848338Y-93294783D01*
X112844775Y-93304470D01*
X112789389Y-93504183D01*
X112790912Y-93512607D01*
X112803292Y-93516000D01*
X115443344Y-93516000D01*
X115456875Y-93512027D01*
X115458180Y-93502947D01*
X115416214Y-93335875D01*
X115412894Y-93326124D01*
X115327972Y-93130814D01*
X115323105Y-93121739D01*
X115207426Y-92942926D01*
X115201136Y-92934757D01*
X115057806Y-92777240D01*
X115050273Y-92770215D01*
X114883139Y-92638222D01*
X114874556Y-92632520D01*
X114837602Y-92612120D01*
X114787631Y-92561687D01*
X114772859Y-92492245D01*
X114797975Y-92425839D01*
X114825327Y-92399232D01*
X114848797Y-92382491D01*
X115004860Y-92271173D01*
X115163096Y-92113489D01*
X115222594Y-92030689D01*
X115290435Y-91936277D01*
X115293453Y-91932077D01*
X115392430Y-91731811D01*
X115457370Y-91518069D01*
X115486529Y-91296590D01*
X115488156Y-91230000D01*
X115469852Y-91007361D01*
X115415431Y-90790702D01*
X115326354Y-90585840D01*
X115205014Y-90398277D01*
X115054670Y-90233051D01*
X115050619Y-90229852D01*
X115050615Y-90229848D01*
X114883414Y-90097800D01*
X114883410Y-90097798D01*
X114879359Y-90094598D01*
X114838053Y-90071796D01*
X114788084Y-90021364D01*
X114773312Y-89951921D01*
X114798428Y-89885516D01*
X114825780Y-89858909D01*
X114869603Y-89827650D01*
X115004860Y-89731173D01*
X115163096Y-89573489D01*
X115222594Y-89490689D01*
X115290435Y-89396277D01*
X115293453Y-89392077D01*
X115392430Y-89191811D01*
X115457370Y-88978069D01*
X115486529Y-88756590D01*
X115488156Y-88690000D01*
X115469852Y-88467361D01*
X115415431Y-88250702D01*
X115326354Y-88045840D01*
X115205014Y-87858277D01*
X115201532Y-87854450D01*
X115057798Y-87696488D01*
X115026746Y-87632642D01*
X115035141Y-87562143D01*
X115080317Y-87507375D01*
X115106761Y-87493706D01*
X115213297Y-87453767D01*
X115221705Y-87450615D01*
X115338261Y-87363261D01*
X115425615Y-87246705D01*
X115476745Y-87110316D01*
X115483500Y-87048134D01*
X115483500Y-85251866D01*
X115476745Y-85189684D01*
X115425615Y-85053295D01*
X115338261Y-84936739D01*
X115221705Y-84849385D01*
X115085316Y-84798255D01*
X115023134Y-84791500D01*
X113226866Y-84791500D01*
X113164684Y-84798255D01*
X113028295Y-84849385D01*
X112911739Y-84936739D01*
X112824385Y-85053295D01*
X112773255Y-85189684D01*
X112766500Y-85251866D01*
X112766500Y-87048134D01*
X112773255Y-87110316D01*
X112824385Y-87246705D01*
X112911739Y-87363261D01*
X113028295Y-87450615D01*
X113036704Y-87453767D01*
X113036705Y-87453768D01*
X113145451Y-87494535D01*
X113202216Y-87537176D01*
X113226916Y-87603738D01*
X113211709Y-87673087D01*
X113192316Y-87699568D01*
X113065629Y-87832138D01*
X112939743Y-88016680D01*
X112845688Y-88219305D01*
X112785989Y-88434570D01*
X112762251Y-88656695D01*
X112762548Y-88661848D01*
X112762548Y-88661851D01*
X112768011Y-88756590D01*
X112775110Y-88879715D01*
X112776247Y-88884761D01*
X112776248Y-88884767D01*
X112796119Y-88972939D01*
X112824222Y-89097639D01*
X112908266Y-89304616D01*
X113024987Y-89495088D01*
X113171250Y-89663938D01*
X113343126Y-89806632D01*
X113413595Y-89847811D01*
X113416445Y-89849476D01*
X113465169Y-89901114D01*
X113478240Y-89970897D01*
X113451509Y-90036669D01*
X113411055Y-90070027D01*
X113398607Y-90076507D01*
X113394474Y-90079610D01*
X113394471Y-90079612D01*
X113370247Y-90097800D01*
X113219965Y-90210635D01*
X113065629Y-90372138D01*
X112939743Y-90556680D01*
X112845688Y-90759305D01*
X112785989Y-90974570D01*
X112762251Y-91196695D01*
X111760000Y-91196695D01*
X111760000Y-73786000D01*
X111780002Y-73717879D01*
X111833658Y-73671386D01*
X111886000Y-73660000D01*
X147194000Y-73660000D01*
X147262121Y-73680002D01*
G37*
%TD.AperFunction*%
%TD*%
%TA.AperFunction,Conductor*%
%TO.N,GND*%
G36*
X147262121Y-73680002D02*
G01*
X147308614Y-73733658D01*
X147320000Y-73786000D01*
X147320000Y-106554000D01*
X147299998Y-106622121D01*
X147246342Y-106668614D01*
X147194000Y-106680000D01*
X111886000Y-106680000D01*
X111817879Y-106659998D01*
X111771386Y-106606342D01*
X111760000Y-106554000D01*
X111760000Y-94037966D01*
X112793257Y-94037966D01*
X112823565Y-94172446D01*
X112826645Y-94182275D01*
X112906770Y-94379603D01*
X112911413Y-94388794D01*
X113022694Y-94570388D01*
X113028777Y-94578699D01*
X113168213Y-94739667D01*
X113175580Y-94746883D01*
X113339434Y-94882916D01*
X113347881Y-94888831D01*
X113531756Y-94996279D01*
X113541042Y-95000729D01*
X113740001Y-95076703D01*
X113749899Y-95079579D01*
X113853250Y-95100606D01*
X113867299Y-95099410D01*
X113871000Y-95089065D01*
X113871000Y-95088517D01*
X114379000Y-95088517D01*
X114383064Y-95102359D01*
X114396478Y-95104393D01*
X114403184Y-95103534D01*
X114413262Y-95101392D01*
X114617255Y-95040191D01*
X114626842Y-95036433D01*
X114818095Y-94942739D01*
X114826945Y-94937464D01*
X115000328Y-94813792D01*
X115008200Y-94807139D01*
X115159052Y-94656812D01*
X115165730Y-94648965D01*
X115290003Y-94476020D01*
X115295313Y-94467183D01*
X115389670Y-94276267D01*
X115393469Y-94266672D01*
X115455377Y-94062910D01*
X115457555Y-94052837D01*
X115458986Y-94041962D01*
X115456775Y-94027778D01*
X115443617Y-94024000D01*
X114397115Y-94024000D01*
X114381876Y-94028475D01*
X114380671Y-94029865D01*
X114379000Y-94037548D01*
X114379000Y-95088517D01*
X113871000Y-95088517D01*
X113871000Y-94042115D01*
X113866525Y-94026876D01*
X113865135Y-94025671D01*
X113857452Y-94024000D01*
X112808225Y-94024000D01*
X112794694Y-94027973D01*
X112793257Y-94037966D01*
X111760000Y-94037966D01*
X111760000Y-91196695D01*
X112762251Y-91196695D01*
X112762548Y-91201848D01*
X112762548Y-91201851D01*
X112768011Y-91296590D01*
X112775110Y-91419715D01*
X112776247Y-91424761D01*
X112776248Y-91424767D01*
X112796119Y-91512939D01*
X112824222Y-91637639D01*
X112908266Y-91844616D01*
X113024987Y-92035088D01*
X113171250Y-92203938D01*
X113343126Y-92346632D01*
X113416955Y-92389774D01*
X113465679Y-92441412D01*
X113478750Y-92511195D01*
X113452019Y-92576967D01*
X113411562Y-92610327D01*
X113403457Y-92614546D01*
X113394738Y-92620036D01*
X113224433Y-92747905D01*
X113216726Y-92754748D01*
X113069590Y-92908717D01*
X113063104Y-92916727D01*
X112943098Y-93092649D01*
X112938000Y-93101623D01*
X112848338Y-93294783D01*
X112844775Y-93304470D01*
X112789389Y-93504183D01*
X112790912Y-93512607D01*
X112803292Y-93516000D01*
X115443344Y-93516000D01*
X115456875Y-93512027D01*
X115458180Y-93502947D01*
X115416214Y-93335875D01*
X115412894Y-93326124D01*
X115327972Y-93130814D01*
X115323105Y-93121739D01*
X115207426Y-92942926D01*
X115201136Y-92934757D01*
X115057806Y-92777240D01*
X115050273Y-92770215D01*
X114883139Y-92638222D01*
X114874556Y-92632520D01*
X114837602Y-92612120D01*
X114787631Y-92561687D01*
X114772859Y-92492245D01*
X114797975Y-92425839D01*
X114825327Y-92399232D01*
X114848797Y-92382491D01*
X115004860Y-92271173D01*
X115163096Y-92113489D01*
X115222594Y-92030689D01*
X115290435Y-91936277D01*
X115293453Y-91932077D01*
X115392430Y-91731811D01*
X115457370Y-91518069D01*
X115486529Y-91296590D01*
X115488156Y-91230000D01*
X115469852Y-91007361D01*
X115415431Y-90790702D01*
X115326354Y-90585840D01*
X115205014Y-90398277D01*
X115054670Y-90233051D01*
X115050619Y-90229852D01*
X115050615Y-90229848D01*
X114883414Y-90097800D01*
X114883410Y-90097798D01*
X114879359Y-90094598D01*
X114838053Y-90071796D01*
X114788084Y-90021364D01*
X114773312Y-89951921D01*
X114798428Y-89885516D01*
X114825780Y-89858909D01*
X114869603Y-89827650D01*
X115004860Y-89731173D01*
X115163096Y-89573489D01*
X115222594Y-89490689D01*
X115290435Y-89396277D01*
X115293453Y-89392077D01*
X115392430Y-89191811D01*
X115457370Y-88978069D01*
X115486529Y-88756590D01*
X115488156Y-88690000D01*
X115469852Y-88467361D01*
X115415431Y-88250702D01*
X115326354Y-88045840D01*
X115205014Y-87858277D01*
X115201532Y-87854450D01*
X115057798Y-87696488D01*
X115026746Y-87632642D01*
X115035141Y-87562143D01*
X115080317Y-87507375D01*
X115106761Y-87493706D01*
X115213297Y-87453767D01*
X115221705Y-87450615D01*
X115338261Y-87363261D01*
X115425615Y-87246705D01*
X115476745Y-87110316D01*
X115483500Y-87048134D01*
X115483500Y-85251866D01*
X115476745Y-85189684D01*
X115425615Y-85053295D01*
X115338261Y-84936739D01*
X115221705Y-84849385D01*
X115085316Y-84798255D01*
X115023134Y-84791500D01*
X113226866Y-84791500D01*
X113164684Y-84798255D01*
X113028295Y-84849385D01*
X112911739Y-84936739D01*
X112824385Y-85053295D01*
X112773255Y-85189684D01*
X112766500Y-85251866D01*
X112766500Y-87048134D01*
X112773255Y-87110316D01*
X112824385Y-87246705D01*
X112911739Y-87363261D01*
X113028295Y-87450615D01*
X113036704Y-87453767D01*
X113036705Y-87453768D01*
X113145451Y-87494535D01*
X113202216Y-87537176D01*
X113226916Y-87603738D01*
X113211709Y-87673087D01*
X113192316Y-87699568D01*
X113065629Y-87832138D01*
X112939743Y-88016680D01*
X112845688Y-88219305D01*
X112785989Y-88434570D01*
X112762251Y-88656695D01*
X112762548Y-88661848D01*
X112762548Y-88661851D01*
X112768011Y-88756590D01*
X112775110Y-88879715D01*
X112776247Y-88884761D01*
X112776248Y-88884767D01*
X112796119Y-88972939D01*
X112824222Y-89097639D01*
X112908266Y-89304616D01*
X113024987Y-89495088D01*
X113171250Y-89663938D01*
X113343126Y-89806632D01*
X113413595Y-89847811D01*
X113416445Y-89849476D01*
X113465169Y-89901114D01*
X113478240Y-89970897D01*
X113451509Y-90036669D01*
X113411055Y-90070027D01*
X113398607Y-90076507D01*
X113394474Y-90079610D01*
X113394471Y-90079612D01*
X113370247Y-90097800D01*
X113219965Y-90210635D01*
X113065629Y-90372138D01*
X112939743Y-90556680D01*
X112845688Y-90759305D01*
X112785989Y-90974570D01*
X112762251Y-91196695D01*
X111760000Y-91196695D01*
X111760000Y-73786000D01*
X111780002Y-73717879D01*
X111833658Y-73671386D01*
X111886000Y-73660000D01*
X147194000Y-73660000D01*
X147262121Y-73680002D01*
G37*
%TD.AperFunction*%
%TD*%
M02*
