%TF.GenerationSoftware,KiCad,Pcbnew,6.0.5*%
%TF.CreationDate,2022-08-02T09:40:57-05:00*%
%TF.ProjectId,TLE493d-W2B6-board,544c4534-3933-4642-9d57-3242362d626f,rev?*%
%TF.SameCoordinates,Original*%
%TF.FileFunction,Copper,L1,Top*%
%TF.FilePolarity,Positive*%
%FSLAX46Y46*%
G04 Gerber Fmt 4.6, Leading zero omitted, Abs format (unit mm)*
G04 Created by KiCad (PCBNEW 6.0.5) date 2022-08-02 09:40:57*
%MOMM*%
%LPD*%
G01*
G04 APERTURE LIST*
G04 Aperture macros list*
%AMRoundRect*
0 Rectangle with rounded corners*
0 $1 Rounding radius*
0 $2 $3 $4 $5 $6 $7 $8 $9 X,Y pos of 4 corners*
0 Add a 4 corners polygon primitive as box body*
4,1,4,$2,$3,$4,$5,$6,$7,$8,$9,$2,$3,0*
0 Add four circle primitives for the rounded corners*
1,1,$1+$1,$2,$3*
1,1,$1+$1,$4,$5*
1,1,$1+$1,$6,$7*
1,1,$1+$1,$8,$9*
0 Add four rect primitives between the rounded corners*
20,1,$1+$1,$2,$3,$4,$5,0*
20,1,$1+$1,$4,$5,$6,$7,0*
20,1,$1+$1,$6,$7,$8,$9,0*
20,1,$1+$1,$8,$9,$2,$3,0*%
G04 Aperture macros list end*
%TA.AperFunction,NonConductor*%
%ADD10C,0.200000*%
%TD*%
%TA.AperFunction,ComponentPad*%
%ADD11R,1.700000X1.700000*%
%TD*%
%TA.AperFunction,ComponentPad*%
%ADD12O,1.700000X1.700000*%
%TD*%
%TA.AperFunction,SMDPad,CuDef*%
%ADD13RoundRect,0.150000X-0.512500X-0.150000X0.512500X-0.150000X0.512500X0.150000X-0.512500X0.150000X0*%
%TD*%
%TA.AperFunction,SMDPad,CuDef*%
%ADD14RoundRect,0.237500X-0.237500X0.250000X-0.237500X-0.250000X0.237500X-0.250000X0.237500X0.250000X0*%
%TD*%
%TA.AperFunction,SMDPad,CuDef*%
%ADD15RoundRect,0.237500X0.237500X-0.250000X0.237500X0.250000X-0.237500X0.250000X-0.237500X-0.250000X0*%
%TD*%
%TA.AperFunction,SMDPad,CuDef*%
%ADD16RoundRect,0.237500X0.300000X0.237500X-0.300000X0.237500X-0.300000X-0.237500X0.300000X-0.237500X0*%
%TD*%
%TA.AperFunction,ViaPad*%
%ADD17C,0.800000*%
%TD*%
%TA.AperFunction,Conductor*%
%ADD18C,0.250000*%
%TD*%
G04 APERTURE END LIST*
D10*
X111760000Y-73660000D02*
X147320000Y-73660000D01*
X147320000Y-73660000D02*
X147320000Y-106680000D01*
X147320000Y-106680000D02*
X111760000Y-106680000D01*
X111760000Y-106680000D02*
X111760000Y-73660000D01*
D11*
%TO.P,J1,1,Pin_1*%
%TO.N,+3V3*%
X114125000Y-86150000D03*
D12*
%TO.P,J1,2,Pin_2*%
%TO.N,SDA*%
X114125000Y-88690000D03*
%TO.P,J1,3,Pin_3*%
%TO.N,SCL*%
X114125000Y-91230000D03*
%TO.P,J1,4,Pin_4*%
%TO.N,GND*%
X114125000Y-93770000D03*
%TD*%
D13*
%TO.P,U3,1,SCL/INT*%
%TO.N,SCL*%
X130862500Y-78050000D03*
%TO.P,U3,2,GND*%
%TO.N,GND*%
X130862500Y-79000000D03*
%TO.P,U3,3,GND*%
%TO.N,unconnected-(U3-Pad3)*%
X130862500Y-79950000D03*
%TO.P,U3,4,VDD*%
%TO.N,+3V3*%
X133137500Y-79950000D03*
%TO.P,U3,5,GND*%
%TO.N,unconnected-(U3-Pad5)*%
X133137500Y-79000000D03*
%TO.P,U3,6,SDA/ADDR*%
%TO.N,SDA*%
X133137500Y-78050000D03*
%TD*%
D14*
%TO.P,R1,1*%
%TO.N,SDA*%
X121000000Y-102087500D03*
%TO.P,R1,2*%
%TO.N,+3V3*%
X121000000Y-103912500D03*
%TD*%
D15*
%TO.P,R2,1*%
%TO.N,+3V3*%
X124000000Y-99825000D03*
%TO.P,R2,2*%
%TO.N,SCL*%
X124000000Y-98000000D03*
%TD*%
D13*
%TO.P,U1,1,SCL/INT*%
%TO.N,SCL*%
X142862500Y-89050000D03*
%TO.P,U1,2,GND*%
%TO.N,GND*%
X142862500Y-90000000D03*
%TO.P,U1,3,GND*%
%TO.N,unconnected-(U1-Pad3)*%
X142862500Y-90950000D03*
%TO.P,U1,4,VDD*%
%TO.N,+3V3*%
X145137500Y-90950000D03*
%TO.P,U1,5,GND*%
%TO.N,unconnected-(U1-Pad5)*%
X145137500Y-90000000D03*
%TO.P,U1,6,SDA/ADDR*%
%TO.N,SDA*%
X145137500Y-89050000D03*
%TD*%
%TO.P,U2,1,SCL/INT*%
%TO.N,SCL*%
X130862500Y-101050000D03*
%TO.P,U2,2,GND*%
%TO.N,GND*%
X130862500Y-102000000D03*
%TO.P,U2,3,GND*%
%TO.N,unconnected-(U2-Pad3)*%
X130862500Y-102950000D03*
%TO.P,U2,4,VDD*%
%TO.N,+3V3*%
X133137500Y-102950000D03*
%TO.P,U2,5,GND*%
%TO.N,unconnected-(U2-Pad5)*%
X133137500Y-102000000D03*
%TO.P,U2,6,SDA/ADDR*%
%TO.N,SDA*%
X133137500Y-101050000D03*
%TD*%
D16*
%TO.P,C1,1*%
%TO.N,+3V3*%
X115162500Y-104140000D03*
%TO.P,C1,2*%
%TO.N,GND*%
X113437500Y-104140000D03*
%TD*%
D17*
%TO.N,GND*%
X131318000Y-86360000D03*
X140462000Y-98298000D03*
X138938000Y-99822000D03*
X116586000Y-105410000D03*
X128524000Y-100330000D03*
X133604000Y-86360000D03*
X118872000Y-105410000D03*
X121158000Y-105410000D03*
X131318000Y-91694000D03*
X137160000Y-101346000D03*
X133604000Y-91694000D03*
X129000000Y-86360000D03*
X129012658Y-91694000D03*
%TD*%
D18*
%TO.N,+3V3*%
X145137500Y-91333572D02*
X133521072Y-102950000D01*
X115162500Y-104140000D02*
X120772500Y-104140000D01*
X132500000Y-76200000D02*
X132150480Y-76549520D01*
X137700000Y-76200000D02*
X132500000Y-76200000D01*
X124000000Y-100912500D02*
X124000000Y-99825000D01*
X133137500Y-102950000D02*
X131087500Y-105000000D01*
X131087500Y-105000000D02*
X126000000Y-105000000D01*
X121000000Y-103912500D02*
X124000000Y-100912500D01*
X132150480Y-79346552D02*
X132753928Y-79950000D01*
X145137500Y-90950000D02*
X145521072Y-90950000D01*
X133521072Y-102950000D02*
X133137500Y-102950000D01*
X112500969Y-101478469D02*
X115162500Y-104140000D01*
X120772500Y-104140000D02*
X121000000Y-103912500D01*
X132753928Y-79950000D02*
X133137500Y-79950000D01*
X146124520Y-90346552D02*
X146124520Y-84624520D01*
X146124520Y-84624520D02*
X137700000Y-76200000D01*
X112500969Y-87774031D02*
X112500969Y-101478469D01*
X145521072Y-90950000D02*
X146124520Y-90346552D01*
X126000000Y-105000000D02*
X125000000Y-104000000D01*
X145137500Y-90950000D02*
X145137500Y-91333572D01*
X125000000Y-104000000D02*
X121000000Y-104000000D01*
X132150480Y-76549520D02*
X132150480Y-79346552D01*
X114125000Y-86150000D02*
X112500969Y-87774031D01*
%TO.N,GND*%
X142862500Y-90000000D02*
X142478928Y-90000000D01*
X113437500Y-104140000D02*
X113500000Y-104202500D01*
%TO.N,SDA*%
X144000000Y-91146072D02*
X134096072Y-101050000D01*
X133137500Y-101050000D02*
X132753928Y-101050000D01*
X132000000Y-103451782D02*
X131769641Y-103682141D01*
X137915480Y-78000000D02*
X133187500Y-78000000D01*
X134096072Y-101050000D02*
X133137500Y-101050000D01*
X124470296Y-99012980D02*
X123529704Y-99012980D01*
X123529704Y-99012980D02*
X121000000Y-101542684D01*
X131769641Y-103682141D02*
X129139457Y-103682141D01*
X145137500Y-85222020D02*
X137915480Y-78000000D01*
X113750000Y-88690000D02*
X112950489Y-89489511D01*
X121000000Y-101542684D02*
X121000000Y-102087500D01*
X120781490Y-102087500D02*
X121000000Y-102087500D01*
X132753928Y-101050000D02*
X132000000Y-101803928D01*
X133187500Y-78000000D02*
X133137500Y-78050000D01*
X132000000Y-101803928D02*
X132000000Y-103451782D01*
X145137500Y-89050000D02*
X145137500Y-85222020D01*
X129139457Y-103682141D02*
X124470296Y-99012980D01*
X144753928Y-89050000D02*
X144000000Y-89803928D01*
X112950489Y-94256499D02*
X120781490Y-102087500D01*
X144000000Y-89803928D02*
X144000000Y-91146072D01*
X144753928Y-89050000D02*
X145137500Y-89050000D01*
X112950489Y-89489511D02*
X112950489Y-94256499D01*
%TO.N,SCL*%
X113750000Y-91230000D02*
X114764000Y-91230000D01*
X126492000Y-98298000D02*
X123952000Y-95758000D01*
X142848500Y-89036000D02*
X142862500Y-89050000D01*
X143246072Y-89050000D02*
X142862500Y-89050000D01*
X130862500Y-101050000D02*
X130862500Y-98350500D01*
X123952000Y-95758000D02*
X117230000Y-89036000D01*
X117230000Y-89036000D02*
X117230000Y-87770000D01*
X124000000Y-98000000D02*
X124000000Y-95806000D01*
X117230000Y-89036000D02*
X142848500Y-89036000D01*
X124000000Y-95806000D02*
X123952000Y-95758000D01*
X130862500Y-78050000D02*
X126950000Y-78050000D01*
X116958000Y-89036000D02*
X117230000Y-89036000D01*
X114764000Y-91230000D02*
X116958000Y-89036000D01*
X142862500Y-89050000D02*
X142758500Y-89154000D01*
X130862500Y-98350500D02*
X130810000Y-98298000D01*
X142812500Y-89000000D02*
X142862500Y-89050000D01*
X130810000Y-98298000D02*
X126492000Y-98298000D01*
X126950000Y-78050000D02*
X117230000Y-87770000D01*
%TD*%
%TA.AperFunction,Conductor*%
%TO.N,GND*%
G36*
X146629532Y-90841610D02*
G01*
X146686368Y-90884157D01*
X146711179Y-90950677D01*
X146711500Y-90959666D01*
X146711500Y-105945500D01*
X146691498Y-106013621D01*
X146637842Y-106060114D01*
X146585500Y-106071500D01*
X112494500Y-106071500D01*
X112426379Y-106051498D01*
X112379886Y-105997842D01*
X112368500Y-105945500D01*
X112368500Y-104967070D01*
X112388502Y-104898949D01*
X112442158Y-104852456D01*
X112512432Y-104842352D01*
X112577012Y-104871846D01*
X112583518Y-104877897D01*
X112667129Y-104961363D01*
X112678540Y-104970375D01*
X112814063Y-105053912D01*
X112827241Y-105060056D01*
X112978766Y-105110315D01*
X112992132Y-105113181D01*
X113084770Y-105122672D01*
X113091185Y-105123000D01*
X113165385Y-105123000D01*
X113180624Y-105118525D01*
X113181829Y-105117135D01*
X113183500Y-105109452D01*
X113183500Y-104012000D01*
X113203502Y-103943879D01*
X113257158Y-103897386D01*
X113309500Y-103886000D01*
X113565500Y-103886000D01*
X113633621Y-103906002D01*
X113680114Y-103959658D01*
X113691500Y-104012000D01*
X113691500Y-105104885D01*
X113695975Y-105120124D01*
X113697365Y-105121329D01*
X113705048Y-105123000D01*
X113783766Y-105123000D01*
X113790282Y-105122663D01*
X113884132Y-105112925D01*
X113897528Y-105110032D01*
X114048953Y-105059512D01*
X114062115Y-105053347D01*
X114197492Y-104969574D01*
X114208894Y-104960536D01*
X114210567Y-104958861D01*
X114211993Y-104958081D01*
X114214627Y-104955993D01*
X114214984Y-104956444D01*
X114272849Y-104924781D01*
X114343669Y-104929784D01*
X114388754Y-104958701D01*
X114391421Y-104961363D01*
X114396997Y-104966929D01*
X114545080Y-105058209D01*
X114710191Y-105112974D01*
X114717027Y-105113674D01*
X114717030Y-105113675D01*
X114764370Y-105118525D01*
X114812928Y-105123500D01*
X115512072Y-105123500D01*
X115515318Y-105123163D01*
X115515322Y-105123163D01*
X115609235Y-105113419D01*
X115609239Y-105113418D01*
X115616093Y-105112707D01*
X115622629Y-105110526D01*
X115622631Y-105110526D01*
X115755395Y-105066232D01*
X115781107Y-105057654D01*
X115929031Y-104966116D01*
X115970294Y-104924781D01*
X116046758Y-104848184D01*
X116046762Y-104848179D01*
X116051929Y-104843003D01*
X116057857Y-104833386D01*
X116059886Y-104831559D01*
X116060307Y-104831027D01*
X116060398Y-104831099D01*
X116110628Y-104785892D01*
X116165118Y-104773500D01*
X120296278Y-104773500D01*
X120362393Y-104792239D01*
X120445080Y-104843209D01*
X120610191Y-104897974D01*
X120617027Y-104898674D01*
X120617030Y-104898675D01*
X120668526Y-104903951D01*
X120712928Y-104908500D01*
X121287072Y-104908500D01*
X121290318Y-104908163D01*
X121290322Y-104908163D01*
X121384235Y-104898419D01*
X121384239Y-104898418D01*
X121391093Y-104897707D01*
X121397629Y-104895526D01*
X121397631Y-104895526D01*
X121539532Y-104848184D01*
X121556107Y-104842654D01*
X121704031Y-104751116D01*
X121709204Y-104745934D01*
X121709209Y-104745930D01*
X121784524Y-104670483D01*
X121846806Y-104636403D01*
X121873697Y-104633500D01*
X124685406Y-104633500D01*
X124753527Y-104653502D01*
X124774501Y-104670405D01*
X125496343Y-105392247D01*
X125503887Y-105400537D01*
X125508000Y-105407018D01*
X125513777Y-105412443D01*
X125557667Y-105453658D01*
X125560509Y-105456413D01*
X125580231Y-105476135D01*
X125583355Y-105478558D01*
X125583359Y-105478562D01*
X125583424Y-105478612D01*
X125592445Y-105486317D01*
X125624679Y-105516586D01*
X125631627Y-105520405D01*
X125631629Y-105520407D01*
X125642432Y-105526346D01*
X125658959Y-105537202D01*
X125668698Y-105544757D01*
X125668700Y-105544758D01*
X125674960Y-105549614D01*
X125715540Y-105567174D01*
X125726188Y-105572391D01*
X125750976Y-105586018D01*
X125764940Y-105593695D01*
X125772616Y-105595666D01*
X125772619Y-105595667D01*
X125784562Y-105598733D01*
X125803267Y-105605137D01*
X125821855Y-105613181D01*
X125829678Y-105614420D01*
X125829688Y-105614423D01*
X125865524Y-105620099D01*
X125877144Y-105622505D01*
X125908959Y-105630673D01*
X125919970Y-105633500D01*
X125940224Y-105633500D01*
X125959934Y-105635051D01*
X125979943Y-105638220D01*
X125987835Y-105637474D01*
X126006580Y-105635702D01*
X126023962Y-105634059D01*
X126035819Y-105633500D01*
X131008733Y-105633500D01*
X131019916Y-105634027D01*
X131027409Y-105635702D01*
X131035335Y-105635453D01*
X131035336Y-105635453D01*
X131095486Y-105633562D01*
X131099445Y-105633500D01*
X131127356Y-105633500D01*
X131131291Y-105633003D01*
X131131356Y-105632995D01*
X131143193Y-105632062D01*
X131175451Y-105631048D01*
X131179470Y-105630922D01*
X131187389Y-105630673D01*
X131206843Y-105625021D01*
X131226200Y-105621013D01*
X131238430Y-105619468D01*
X131238431Y-105619468D01*
X131246297Y-105618474D01*
X131253668Y-105615555D01*
X131253670Y-105615555D01*
X131287412Y-105602196D01*
X131298642Y-105598351D01*
X131333483Y-105588229D01*
X131333484Y-105588229D01*
X131341093Y-105586018D01*
X131347912Y-105581985D01*
X131347917Y-105581983D01*
X131358528Y-105575707D01*
X131376276Y-105567012D01*
X131395117Y-105559552D01*
X131430887Y-105533564D01*
X131440807Y-105527048D01*
X131472035Y-105508580D01*
X131472038Y-105508578D01*
X131478862Y-105504542D01*
X131493183Y-105490221D01*
X131508217Y-105477380D01*
X131509931Y-105476135D01*
X131524607Y-105465472D01*
X131552798Y-105431395D01*
X131560788Y-105422616D01*
X133188000Y-103795405D01*
X133250312Y-103761379D01*
X133277095Y-103758500D01*
X133716502Y-103758500D01*
X133718950Y-103758307D01*
X133718958Y-103758307D01*
X133747421Y-103756067D01*
X133747426Y-103756066D01*
X133753831Y-103755562D01*
X133853769Y-103726528D01*
X133905988Y-103711357D01*
X133905990Y-103711356D01*
X133913601Y-103709145D01*
X133942411Y-103692107D01*
X134049980Y-103628491D01*
X134049983Y-103628489D01*
X134056807Y-103624453D01*
X134174453Y-103506807D01*
X134178489Y-103499983D01*
X134178491Y-103499980D01*
X134255108Y-103370427D01*
X134259145Y-103363601D01*
X134305562Y-103203831D01*
X134308228Y-103169968D01*
X134308307Y-103168958D01*
X134308307Y-103168950D01*
X134308500Y-103166502D01*
X134308500Y-103110666D01*
X134328502Y-103042545D01*
X134345405Y-103021571D01*
X139927449Y-97439528D01*
X145529753Y-91837224D01*
X145538039Y-91829684D01*
X145544518Y-91825572D01*
X145570177Y-91798247D01*
X145631391Y-91762281D01*
X145662028Y-91758500D01*
X145716502Y-91758500D01*
X145718950Y-91758307D01*
X145718958Y-91758307D01*
X145747421Y-91756067D01*
X145747426Y-91756066D01*
X145753831Y-91755562D01*
X145853769Y-91726528D01*
X145905988Y-91711357D01*
X145905990Y-91711356D01*
X145913601Y-91709145D01*
X145942411Y-91692107D01*
X146049980Y-91628491D01*
X146049983Y-91628489D01*
X146056807Y-91624453D01*
X146174453Y-91506807D01*
X146178489Y-91499983D01*
X146178491Y-91499980D01*
X146255108Y-91370427D01*
X146259145Y-91363601D01*
X146305562Y-91203831D01*
X146308500Y-91166502D01*
X146308500Y-91110666D01*
X146328502Y-91042545D01*
X146345405Y-91021571D01*
X146496405Y-90870571D01*
X146558717Y-90836545D01*
X146629532Y-90841610D01*
G37*
%TD.AperFunction*%
%TA.AperFunction,Conductor*%
G36*
X125192012Y-97894370D02*
G01*
X125198595Y-97900499D01*
X125988343Y-98690247D01*
X125995887Y-98698537D01*
X126000000Y-98705018D01*
X126005777Y-98710443D01*
X126049667Y-98751658D01*
X126052509Y-98754413D01*
X126072230Y-98774134D01*
X126075425Y-98776612D01*
X126084447Y-98784318D01*
X126116679Y-98814586D01*
X126123628Y-98818406D01*
X126134432Y-98824346D01*
X126150956Y-98835199D01*
X126166959Y-98847613D01*
X126207543Y-98865176D01*
X126218173Y-98870383D01*
X126256940Y-98891695D01*
X126264617Y-98893666D01*
X126264622Y-98893668D01*
X126276558Y-98896732D01*
X126295266Y-98903137D01*
X126313855Y-98911181D01*
X126321680Y-98912420D01*
X126321682Y-98912421D01*
X126357519Y-98918097D01*
X126369140Y-98920504D01*
X126404289Y-98929528D01*
X126411970Y-98931500D01*
X126432231Y-98931500D01*
X126451940Y-98933051D01*
X126471943Y-98936219D01*
X126479835Y-98935473D01*
X126485062Y-98934979D01*
X126515954Y-98932059D01*
X126527811Y-98931500D01*
X130103000Y-98931500D01*
X130171121Y-98951502D01*
X130217614Y-99005158D01*
X130229000Y-99057500D01*
X130229000Y-100154822D01*
X130208998Y-100222943D01*
X130155342Y-100269436D01*
X130138153Y-100275819D01*
X130094012Y-100288643D01*
X130094010Y-100288644D01*
X130086399Y-100290855D01*
X130079572Y-100294892D01*
X130079573Y-100294892D01*
X129950020Y-100371509D01*
X129950017Y-100371511D01*
X129943193Y-100375547D01*
X129825547Y-100493193D01*
X129821511Y-100500017D01*
X129821509Y-100500020D01*
X129760670Y-100602894D01*
X129740855Y-100636399D01*
X129738644Y-100644010D01*
X129738643Y-100644012D01*
X129732494Y-100665177D01*
X129694438Y-100796169D01*
X129691500Y-100833498D01*
X129691500Y-101266502D01*
X129691693Y-101268950D01*
X129691693Y-101268958D01*
X129693633Y-101293598D01*
X129694438Y-101303831D01*
X129740855Y-101463601D01*
X129744889Y-101470423D01*
X129747128Y-101475596D01*
X129755824Y-101546058D01*
X129747128Y-101575674D01*
X129739107Y-101594210D01*
X129700061Y-101728605D01*
X129700101Y-101742706D01*
X129707370Y-101746000D01*
X129945158Y-101746000D01*
X130009297Y-101763547D01*
X130086399Y-101809145D01*
X130094010Y-101811356D01*
X130094012Y-101811357D01*
X130133868Y-101822936D01*
X130246169Y-101855562D01*
X130252574Y-101856066D01*
X130252579Y-101856067D01*
X130281042Y-101858307D01*
X130281050Y-101858307D01*
X130283498Y-101858500D01*
X130990500Y-101858500D01*
X131058621Y-101878502D01*
X131105114Y-101932158D01*
X131116500Y-101984500D01*
X131116500Y-102015500D01*
X131096498Y-102083621D01*
X131042842Y-102130114D01*
X130990500Y-102141500D01*
X130283498Y-102141500D01*
X130281050Y-102141693D01*
X130281042Y-102141693D01*
X130252579Y-102143933D01*
X130252574Y-102143934D01*
X130246169Y-102144438D01*
X130146231Y-102173472D01*
X130094012Y-102188643D01*
X130094010Y-102188644D01*
X130086399Y-102190855D01*
X130079572Y-102194892D01*
X130079573Y-102194892D01*
X130009297Y-102236453D01*
X129945158Y-102254000D01*
X129713122Y-102254000D01*
X129699591Y-102257973D01*
X129698456Y-102265871D01*
X129739107Y-102405790D01*
X129747128Y-102424326D01*
X129755824Y-102494788D01*
X129747128Y-102524404D01*
X129744889Y-102529577D01*
X129740855Y-102536399D01*
X129694438Y-102696169D01*
X129691500Y-102733498D01*
X129691500Y-102922641D01*
X129671498Y-102990762D01*
X129617842Y-103037255D01*
X129565500Y-103048641D01*
X129454051Y-103048641D01*
X129385930Y-103028639D01*
X129364956Y-103011736D01*
X127184263Y-100831042D01*
X124973948Y-98620727D01*
X124966395Y-98612422D01*
X124965367Y-98610801D01*
X124937786Y-98546438D01*
X124943298Y-98491781D01*
X124964032Y-98429267D01*
X124972974Y-98402309D01*
X124983500Y-98299572D01*
X124983500Y-97989594D01*
X125003502Y-97921473D01*
X125057158Y-97874980D01*
X125127432Y-97864876D01*
X125192012Y-97894370D01*
G37*
%TD.AperFunction*%
%TA.AperFunction,Conductor*%
G36*
X117138032Y-89856038D02*
G01*
X117183095Y-89884999D01*
X123329595Y-96031499D01*
X123363621Y-96093811D01*
X123366500Y-96120594D01*
X123366500Y-97047536D01*
X123346498Y-97115657D01*
X123306804Y-97154679D01*
X123295969Y-97161384D01*
X123290796Y-97166566D01*
X123178242Y-97279316D01*
X123178238Y-97279321D01*
X123173071Y-97284497D01*
X123081791Y-97432580D01*
X123027026Y-97597691D01*
X123016500Y-97700428D01*
X123016500Y-98299572D01*
X123016837Y-98302818D01*
X123016837Y-98302822D01*
X123020956Y-98342514D01*
X123027293Y-98403593D01*
X123029473Y-98410127D01*
X123029474Y-98410132D01*
X123056650Y-98491588D01*
X123059234Y-98562538D01*
X123026221Y-98620559D01*
X120707432Y-100939347D01*
X120645120Y-100973373D01*
X120574304Y-100968308D01*
X120529242Y-100939347D01*
X114751173Y-95161278D01*
X114717147Y-95098966D01*
X114722212Y-95028151D01*
X114764759Y-94971315D01*
X114784837Y-94959031D01*
X114818094Y-94942739D01*
X114826948Y-94937461D01*
X115000328Y-94813792D01*
X115008200Y-94807139D01*
X115159052Y-94656812D01*
X115165730Y-94648965D01*
X115290003Y-94476020D01*
X115295313Y-94467183D01*
X115389670Y-94276267D01*
X115393469Y-94266672D01*
X115455377Y-94062910D01*
X115457555Y-94052837D01*
X115458986Y-94041962D01*
X115456775Y-94027778D01*
X115443617Y-94024000D01*
X113997000Y-94024000D01*
X113928879Y-94003998D01*
X113882386Y-93950342D01*
X113871000Y-93898000D01*
X113871000Y-93642000D01*
X113891002Y-93573879D01*
X113944658Y-93527386D01*
X113997000Y-93516000D01*
X115443344Y-93516000D01*
X115456875Y-93512027D01*
X115458180Y-93502947D01*
X115416214Y-93335875D01*
X115412894Y-93326124D01*
X115327972Y-93130814D01*
X115323105Y-93121739D01*
X115207426Y-92942926D01*
X115201136Y-92934757D01*
X115057806Y-92777240D01*
X115050273Y-92770215D01*
X114883139Y-92638222D01*
X114874556Y-92632520D01*
X114837602Y-92612120D01*
X114787631Y-92561687D01*
X114772859Y-92492245D01*
X114797975Y-92425839D01*
X114825327Y-92399232D01*
X114848797Y-92382491D01*
X115004860Y-92271173D01*
X115163096Y-92113489D01*
X115293453Y-91932077D01*
X115343419Y-91830979D01*
X115390136Y-91736453D01*
X115390137Y-91736451D01*
X115392430Y-91731811D01*
X115457370Y-91518069D01*
X115464756Y-91461969D01*
X115493479Y-91397042D01*
X115500583Y-91389321D01*
X117004905Y-89884999D01*
X117067217Y-89850973D01*
X117138032Y-89856038D01*
G37*
%TD.AperFunction*%
%TA.AperFunction,Conductor*%
G36*
X141651166Y-89689502D02*
G01*
X141688849Y-89727078D01*
X141698480Y-89741971D01*
X141707370Y-89746000D01*
X141945158Y-89746000D01*
X142009297Y-89763547D01*
X142086399Y-89809145D01*
X142094010Y-89811356D01*
X142094012Y-89811357D01*
X142131621Y-89822283D01*
X142246169Y-89855562D01*
X142252574Y-89856066D01*
X142252579Y-89856067D01*
X142281042Y-89858307D01*
X142281050Y-89858307D01*
X142283498Y-89858500D01*
X142990500Y-89858500D01*
X143058621Y-89878502D01*
X143105114Y-89932158D01*
X143116500Y-89984500D01*
X143116500Y-90015500D01*
X143096498Y-90083621D01*
X143042842Y-90130114D01*
X142990500Y-90141500D01*
X142283498Y-90141500D01*
X142281050Y-90141693D01*
X142281042Y-90141693D01*
X142252579Y-90143933D01*
X142252574Y-90143934D01*
X142246169Y-90144438D01*
X142146231Y-90173472D01*
X142094012Y-90188643D01*
X142094010Y-90188644D01*
X142086399Y-90190855D01*
X142079572Y-90194892D01*
X142079573Y-90194892D01*
X142009297Y-90236453D01*
X141945158Y-90254000D01*
X141713122Y-90254000D01*
X141699591Y-90257973D01*
X141698456Y-90265871D01*
X141739107Y-90405790D01*
X141747128Y-90424326D01*
X141755824Y-90494788D01*
X141747128Y-90524404D01*
X141744889Y-90529577D01*
X141740855Y-90536399D01*
X141694438Y-90696169D01*
X141691500Y-90733498D01*
X141691500Y-91166502D01*
X141694438Y-91203831D01*
X141740855Y-91363601D01*
X141744892Y-91370427D01*
X141821509Y-91499980D01*
X141821511Y-91499983D01*
X141825547Y-91506807D01*
X141943193Y-91624453D01*
X141950017Y-91628489D01*
X141950020Y-91628491D01*
X142057589Y-91692107D01*
X142086399Y-91709145D01*
X142094010Y-91711356D01*
X142094012Y-91711357D01*
X142234082Y-91752051D01*
X142293917Y-91790264D01*
X142323595Y-91854760D01*
X142313692Y-91925063D01*
X142288024Y-91962143D01*
X134001713Y-100248454D01*
X133939401Y-100282480D01*
X133877466Y-100280356D01*
X133760011Y-100246233D01*
X133760007Y-100246232D01*
X133753831Y-100244438D01*
X133747426Y-100243934D01*
X133747421Y-100243933D01*
X133718958Y-100241693D01*
X133718950Y-100241693D01*
X133716502Y-100241500D01*
X132558498Y-100241500D01*
X132556050Y-100241693D01*
X132556042Y-100241693D01*
X132527579Y-100243933D01*
X132527574Y-100243934D01*
X132521169Y-100244438D01*
X132421231Y-100273472D01*
X132369012Y-100288643D01*
X132369010Y-100288644D01*
X132361399Y-100290855D01*
X132354572Y-100294892D01*
X132354573Y-100294892D01*
X132225020Y-100371509D01*
X132225017Y-100371511D01*
X132218193Y-100375547D01*
X132100547Y-100493193D01*
X132098294Y-100497002D01*
X132042004Y-100537655D01*
X131971112Y-100541506D01*
X131909391Y-100506418D01*
X131902724Y-100498724D01*
X131899453Y-100493193D01*
X131781807Y-100375547D01*
X131774983Y-100371511D01*
X131774980Y-100371509D01*
X131645427Y-100294892D01*
X131645428Y-100294892D01*
X131638601Y-100290855D01*
X131630990Y-100288644D01*
X131630988Y-100288643D01*
X131586847Y-100275819D01*
X131527011Y-100237606D01*
X131497334Y-100173110D01*
X131496000Y-100154822D01*
X131496000Y-98429267D01*
X131496527Y-98418084D01*
X131498202Y-98410591D01*
X131497767Y-98396735D01*
X131496062Y-98342514D01*
X131496000Y-98338555D01*
X131496000Y-98310644D01*
X131495495Y-98306644D01*
X131494562Y-98294801D01*
X131493422Y-98258529D01*
X131493173Y-98250610D01*
X131487522Y-98231158D01*
X131483514Y-98211806D01*
X131481967Y-98199563D01*
X131480974Y-98191703D01*
X131478056Y-98184332D01*
X131464700Y-98150597D01*
X131460855Y-98139370D01*
X131460221Y-98137187D01*
X131448518Y-98096907D01*
X131444484Y-98090085D01*
X131444481Y-98090079D01*
X131438206Y-98079468D01*
X131429510Y-98061718D01*
X131424972Y-98050256D01*
X131424969Y-98050251D01*
X131422052Y-98042883D01*
X131396073Y-98007125D01*
X131389557Y-97997207D01*
X131371075Y-97965957D01*
X131367042Y-97959137D01*
X131352718Y-97944813D01*
X131339876Y-97929778D01*
X131333842Y-97921473D01*
X131327972Y-97913393D01*
X131321868Y-97908343D01*
X131321866Y-97908341D01*
X131309513Y-97898122D01*
X131302181Y-97890790D01*
X131302000Y-97890982D01*
X131252349Y-97844357D01*
X131249507Y-97841602D01*
X131229770Y-97821865D01*
X131226573Y-97819385D01*
X131217551Y-97811680D01*
X131191100Y-97786841D01*
X131185321Y-97781414D01*
X131178375Y-97777595D01*
X131178372Y-97777593D01*
X131167566Y-97771652D01*
X131151047Y-97760801D01*
X131150583Y-97760441D01*
X131135041Y-97748386D01*
X131127772Y-97745241D01*
X131127768Y-97745238D01*
X131094463Y-97730826D01*
X131083813Y-97725609D01*
X131045060Y-97704305D01*
X131025437Y-97699267D01*
X131006734Y-97692863D01*
X130995420Y-97687967D01*
X130995419Y-97687967D01*
X130988145Y-97684819D01*
X130980322Y-97683580D01*
X130980312Y-97683577D01*
X130944476Y-97677901D01*
X130932856Y-97675495D01*
X130897711Y-97666472D01*
X130897710Y-97666472D01*
X130890030Y-97664500D01*
X130869776Y-97664500D01*
X130850065Y-97662949D01*
X130837886Y-97661020D01*
X130830057Y-97659780D01*
X130822165Y-97660526D01*
X130786039Y-97663941D01*
X130774181Y-97664500D01*
X126806595Y-97664500D01*
X126738474Y-97644498D01*
X126717500Y-97627595D01*
X124490218Y-95400313D01*
X124477376Y-95385278D01*
X124465472Y-95368893D01*
X124431406Y-95340711D01*
X124422627Y-95332722D01*
X124371770Y-95281865D01*
X124371766Y-95281862D01*
X121673471Y-92583567D01*
X118974500Y-89884595D01*
X118940474Y-89822283D01*
X118945539Y-89751468D01*
X118988086Y-89694632D01*
X119054606Y-89669821D01*
X119063595Y-89669500D01*
X141583045Y-89669500D01*
X141651166Y-89689502D01*
G37*
%TD.AperFunction*%
%TA.AperFunction,Conductor*%
G36*
X137669007Y-78653502D02*
G01*
X137689981Y-78670405D01*
X144467095Y-85447519D01*
X144501121Y-85509831D01*
X144504000Y-85536614D01*
X144504000Y-88154822D01*
X144483998Y-88222943D01*
X144430342Y-88269436D01*
X144413153Y-88275819D01*
X144369012Y-88288643D01*
X144369010Y-88288644D01*
X144361399Y-88290855D01*
X144354572Y-88294892D01*
X144354573Y-88294892D01*
X144225020Y-88371509D01*
X144225017Y-88371511D01*
X144218193Y-88375547D01*
X144100547Y-88493193D01*
X144098294Y-88497002D01*
X144042004Y-88537655D01*
X143971112Y-88541506D01*
X143909391Y-88506418D01*
X143902724Y-88498724D01*
X143899453Y-88493193D01*
X143781807Y-88375547D01*
X143774983Y-88371511D01*
X143774980Y-88371509D01*
X143645427Y-88294892D01*
X143645428Y-88294892D01*
X143638601Y-88290855D01*
X143630990Y-88288644D01*
X143630988Y-88288643D01*
X143578769Y-88273472D01*
X143478831Y-88244438D01*
X143472426Y-88243934D01*
X143472421Y-88243933D01*
X143443958Y-88241693D01*
X143443950Y-88241693D01*
X143441502Y-88241500D01*
X142283498Y-88241500D01*
X142281050Y-88241693D01*
X142281042Y-88241693D01*
X142252579Y-88243933D01*
X142252574Y-88243934D01*
X142246169Y-88244438D01*
X142146231Y-88273472D01*
X142094012Y-88288643D01*
X142094010Y-88288644D01*
X142086399Y-88290855D01*
X142079572Y-88294892D01*
X142079573Y-88294892D01*
X141950020Y-88371509D01*
X141950017Y-88371511D01*
X141943193Y-88375547D01*
X141941728Y-88377012D01*
X141878070Y-88402006D01*
X141866928Y-88402500D01*
X117989500Y-88402500D01*
X117921379Y-88382498D01*
X117874886Y-88328842D01*
X117863500Y-88276500D01*
X117863500Y-88084594D01*
X117883502Y-88016473D01*
X117900405Y-87995499D01*
X127175500Y-78720405D01*
X127237812Y-78686379D01*
X127264595Y-78683500D01*
X129592099Y-78683500D01*
X129660220Y-78703502D01*
X129697903Y-78741078D01*
X129698480Y-78741970D01*
X129707371Y-78746000D01*
X129945158Y-78746000D01*
X130009297Y-78763547D01*
X130086399Y-78809145D01*
X130094010Y-78811356D01*
X130094012Y-78811357D01*
X130146231Y-78826528D01*
X130246169Y-78855562D01*
X130252574Y-78856066D01*
X130252579Y-78856067D01*
X130281042Y-78858307D01*
X130281050Y-78858307D01*
X130283498Y-78858500D01*
X130990500Y-78858500D01*
X131058621Y-78878502D01*
X131105114Y-78932158D01*
X131116500Y-78984500D01*
X131116500Y-79015500D01*
X131096498Y-79083621D01*
X131042842Y-79130114D01*
X130990500Y-79141500D01*
X130283498Y-79141500D01*
X130281050Y-79141693D01*
X130281042Y-79141693D01*
X130252579Y-79143933D01*
X130252574Y-79143934D01*
X130246169Y-79144438D01*
X130146231Y-79173472D01*
X130094012Y-79188643D01*
X130094010Y-79188644D01*
X130086399Y-79190855D01*
X130079572Y-79194892D01*
X130079573Y-79194892D01*
X130009297Y-79236453D01*
X129945158Y-79254000D01*
X129713122Y-79254000D01*
X129699591Y-79257973D01*
X129698456Y-79265871D01*
X129739107Y-79405790D01*
X129747128Y-79424326D01*
X129755824Y-79494788D01*
X129747128Y-79524404D01*
X129744889Y-79529577D01*
X129740855Y-79536399D01*
X129694438Y-79696169D01*
X129691500Y-79733498D01*
X129691500Y-80166502D01*
X129694438Y-80203831D01*
X129740855Y-80363601D01*
X129744892Y-80370427D01*
X129821509Y-80499980D01*
X129821511Y-80499983D01*
X129825547Y-80506807D01*
X129943193Y-80624453D01*
X129950017Y-80628489D01*
X129950020Y-80628491D01*
X130057589Y-80692107D01*
X130086399Y-80709145D01*
X130094010Y-80711356D01*
X130094012Y-80711357D01*
X130146231Y-80726528D01*
X130246169Y-80755562D01*
X130252574Y-80756066D01*
X130252579Y-80756067D01*
X130281042Y-80758307D01*
X130281050Y-80758307D01*
X130283498Y-80758500D01*
X131441502Y-80758500D01*
X131443950Y-80758307D01*
X131443958Y-80758307D01*
X131472421Y-80756067D01*
X131472426Y-80756066D01*
X131478831Y-80755562D01*
X131578769Y-80726528D01*
X131630988Y-80711357D01*
X131630990Y-80711356D01*
X131638601Y-80709145D01*
X131667411Y-80692107D01*
X131774980Y-80628491D01*
X131774983Y-80628489D01*
X131781807Y-80624453D01*
X131899453Y-80506807D01*
X131901706Y-80502998D01*
X131957996Y-80462345D01*
X132028888Y-80458494D01*
X132090609Y-80493582D01*
X132097276Y-80501276D01*
X132100547Y-80506807D01*
X132218193Y-80624453D01*
X132225017Y-80628489D01*
X132225020Y-80628491D01*
X132332589Y-80692107D01*
X132361399Y-80709145D01*
X132369010Y-80711356D01*
X132369012Y-80711357D01*
X132421231Y-80726528D01*
X132521169Y-80755562D01*
X132527574Y-80756066D01*
X132527579Y-80756067D01*
X132556042Y-80758307D01*
X132556050Y-80758307D01*
X132558498Y-80758500D01*
X133716502Y-80758500D01*
X133718950Y-80758307D01*
X133718958Y-80758307D01*
X133747421Y-80756067D01*
X133747426Y-80756066D01*
X133753831Y-80755562D01*
X133853769Y-80726528D01*
X133905988Y-80711357D01*
X133905990Y-80711356D01*
X133913601Y-80709145D01*
X133942411Y-80692107D01*
X134049980Y-80628491D01*
X134049983Y-80628489D01*
X134056807Y-80624453D01*
X134174453Y-80506807D01*
X134178489Y-80499983D01*
X134178491Y-80499980D01*
X134255108Y-80370427D01*
X134259145Y-80363601D01*
X134305562Y-80203831D01*
X134308500Y-80166502D01*
X134308500Y-79733498D01*
X134305562Y-79696169D01*
X134259145Y-79536399D01*
X134255113Y-79529581D01*
X134253147Y-79525038D01*
X134244451Y-79454576D01*
X134253147Y-79424962D01*
X134255113Y-79420419D01*
X134259145Y-79413601D01*
X134261415Y-79405790D01*
X134303767Y-79260008D01*
X134305562Y-79253831D01*
X134308500Y-79216502D01*
X134308500Y-78783498D01*
X134308307Y-78781042D01*
X134308306Y-78781024D01*
X134307390Y-78769389D01*
X134321984Y-78699909D01*
X134371825Y-78649348D01*
X134433001Y-78633500D01*
X137600886Y-78633500D01*
X137669007Y-78653502D01*
G37*
%TD.AperFunction*%
%TD*%
M02*
